<svg xmlns="http://www.w3.org/2000/svg" width="1600" height="900" viewBox="0 0 1600 900" role="img" aria-label="Job search and constraint banner">
  <defs>
    <linearGradient id="jscBg" x1="0" y1="0" x2="1" y2="1">
      <stop offset="0" stop-color="#140a18"/>
      <stop offset="0.5" stop-color="#1a1530"/>
      <stop offset="1" stop-color="#1e1a42"/>
    </linearGradient>
    <linearGradient id="jscAccent" x1="0" y1="0" x2="1" y2="1">
      <stop offset="0" stop-color="#f59e0b" stop-opacity="0.95"/>
      <stop offset="0.5" stop-color="#c084fc" stop-opacity="0.85"/>
      <stop offset="1" stop-color="#38bdf8" stop-opacity="0.85"/>
    </linearGradient>
    <filter id="jscGlow" x="-20%" y="-20%" width="140%" height="140%">
      <feGaussianBlur stdDeviation="16" result="blur"/>
      <feColorMatrix in="blur" type="matrix"
        values="1 0 0 0 0
                0 1 0 0 0
                0 0 1 0 0
                0 0 0 0.32 0" result="glow"/>
      <feMerge>
        <feMergeNode in="glow"/>
        <feMergeNode in="SourceGraphic"/>
      </feMerge>
    </filter>
  </defs>

  <rect width="1600" height="900" fill="url(#jscBg)"/>

  <path d="M-40,520 C280,420 540,620 860,500 C1180,380 1380,480 1660,360 L1660,900 L-40,900 Z"
        fill="url(#jscAccent)" opacity="0.14"/>

  <g opacity="0.06">
    <path d="M0 180H1600M0 360H1600M0 540H1600M0 720H1600" stroke="#ffffff" stroke-width="2"/>
    <path d="M160 0V900M480 0V900M800 0V900M1120 0V900M1440 0V900" stroke="#ffffff" stroke-width="2"/>
  </g>

  <g filter="url(#jscGlow)">
    <circle cx="1220" cy="220" r="120" fill="url(#jscAccent)" opacity="0.12"/>
    <rect x="200" y="200" width="1200" height="360" rx="28" fill="#12081a" opacity="0.5"/>
    <rect x="250" y="260" width="420" height="20" rx="10" fill="url(#jscAccent)" opacity="0.85"/>
    <rect x="250" y="310" width="980" height="18" rx="9" fill="#ffffff" opacity="0.26"/>
    <rect x="250" y="355" width="900" height="18" rx="9" fill="#ffffff" opacity="0.2"/>
    <rect x="250" y="400" width="840" height="18" rx="9" fill="#ffffff" opacity="0.16"/>
    <rect x="250" y="445" width="760" height="18" rx="9" fill="#ffffff" opacity="0.12"/>
    <rect x="250" y="490" width="680" height="18" rx="9" fill="#ffffff" opacity="0.1"/>
  </g>
</svg>
