<svg xmlns="http://www.w3.org/2000/svg" width="1600" height="900" viewBox="0 0 1600 900" role="img" aria-label="Building tools banner">
  <defs>
    <linearGradient id="bg" x1="0" y1="0" x2="1" y2="1">
      <stop offset="0" stop-color="#0b1020"/>
      <stop offset="0.55" stop-color="#0f2a3a"/>
      <stop offset="1" stop-color="#11224b"/>
    </linearGradient>
    <linearGradient id="accent" x1="0" y1="0" x2="1" y2="0">
      <stop offset="0" stop-color="#2dd4bf" stop-opacity="0.9"/>
      <stop offset="1" stop-color="#60a5fa" stop-opacity="0.9"/>
    </linearGradient>
    <filter id="softGlow" x="-20%" y="-20%" width="140%" height="140%">
      <feGaussianBlur stdDeviation="18" result="blur"/>
      <feColorMatrix in="blur" type="matrix"
        values="1 0 0 0 0
                0 1 0 0 0
                0 0 1 0 0
                0 0 0 0.35 0" result="glow"/>
      <feMerge>
        <feMergeNode in="glow"/>
        <feMergeNode in="SourceGraphic"/>
      </feMerge>
    </filter>
  </defs>

  <rect width="1600" height="900" fill="url(#bg)"/>

  <!-- Accent ribbon -->
  <path d="M-50,680 C250,560 520,740 820,620 C1120,500 1320,560 1650,430 L1650,900 L-50,900 Z"
        fill="url(#accent)" opacity="0.18"/>

  <!-- Subtle grid -->
  <g opacity="0.07">
    <path d="M0 150H1600M0 300H1600M0 450H1600M0 600H1600M0 750H1600" stroke="#ffffff" stroke-width="2"/>
    <path d="M200 0V900M400 0V900M600 0V900M800 0V900M1000 0V900M1200 0V900M1400 0V900" stroke="#ffffff" stroke-width="2"/>
  </g>

  <!-- Focus blocks -->
  <g filter="url(#softGlow)">
    <rect x="190" y="210" width="1220" height="330" rx="26" fill="#0b1227" opacity="0.55"/>
    <rect x="190" y="565" width="820" height="110" rx="22" fill="#0b1227" opacity="0.40"/>
    <rect x="1040" y="565" width="370" height="110" rx="22" fill="#0b1227" opacity="0.35"/>
    <rect x="230" y="255" width="520" height="18" rx="9" fill="url(#accent)" opacity="0.9"/>
    <rect x="230" y="300" width="1000" height="18" rx="9" fill="#ffffff" opacity="0.28"/>
    <rect x="230" y="345" width="920" height="18" rx="9" fill="#ffffff" opacity="0.22"/>
    <rect x="230" y="390" width="860" height="18" rx="9" fill="#ffffff" opacity="0.18"/>
    <rect x="230" y="435" width="780" height="18" rx="9" fill="#ffffff" opacity="0.14"/>
    <rect x="230" y="600" width="640" height="18" rx="9" fill="#ffffff" opacity="0.18"/>
    <rect x="230" y="635" width="520" height="18" rx="9" fill="#ffffff" opacity="0.14"/>
    <rect x="1075" y="600" width="290" height="18" rx="9" fill="#ffffff" opacity="0.16"/>
    <rect x="1075" y="635" width="220" height="18" rx="9" fill="#ffffff" opacity="0.12"/>
  </g>
</svg>
